<svg data-v-423bf9ae="" xmlns="http://www.w3.org/2000/svg" viewBox="0 0 175.0829259360709 60" class="font"><!----><!----><!----><g data-v-423bf9ae="" id="21270827-e701-40b3-9c83-7d19df4bd4ee" fill="#D1A103" transform="matrix(5.853658536585366,0,0,5.853658536585366,-1.9902470031889408,-21.073170650296092)"><path d="M2.63 13.65L3.53 13.65L4.87 9.94C4.98 9.63 5.08 9.30 5.18 8.99C5.26 9.30 5.38 9.65 5.49 9.95L6.80 13.65L7.70 13.65L9.98 7.22L8.88 7.22L7.53 11.19C7.45 11.42 7.35 11.76 7.27 12.03L7 11.19L5.66 7.22L4.82 7.22L3.40 11.19C3.32 11.40 3.23 11.72 3.16 12.01L2.91 11.19L1.54 7.22L0.34 7.22ZM13.90 13.85C15.99 13.85 16.87 12.32 16.87 10.33C16.87 8.25 15.88 7.03 13.90 7.03C11.86 7.03 10.91 8.44 10.91 10.33C10.91 12.47 11.79 13.85 13.90 13.85ZM13.90 12.92C12.74 12.92 12.11 12.08 12.11 10.47C12.11 8.88 12.74 7.95 13.90 7.95C15.05 7.95 15.67 8.85 15.67 10.47C15.67 11.96 15.05 12.92 13.90 12.92ZM22.50 13.65L23.94 13.65L21.07 10.12L23.98 7.22L22.54 7.22L20.03 9.72L19.75 9.72L19.75 3.60L18.63 3.60L18.63 13.65L19.75 13.65L19.75 10.61L20.06 10.61ZM30.25 10.61L30.25 9.91C30.25 7.95 29.34 7.03 27.65 7.03C25.41 7.03 24.68 8.75 24.68 10.47C24.68 12.78 25.77 13.85 27.68 13.85C29.09 13.85 29.93 13.16 30.25 12.01L29.27 11.82C29.09 12.40 28.55 12.92 27.71 12.92C26.24 12.92 25.90 11.80 25.89 10.61ZM27.62 7.95C28.63 7.95 29.09 8.61 29.09 9.46L29.09 9.72L25.93 9.72C26.10 8.50 26.73 7.95 27.62 7.95Z"></path></g><!----><!----></svg>